<svg xmlns="http://www.w3.org/2000/svg" xmlns:svg="http://www.w3.org/2000/svg" id="svg3713" width="356" height="291.04" version="1.1" viewBox="0 0 356 291.04" xml:space="preserve"><metadata id="metadata3719"/><defs id="defs3717"><clipPath id="clipPath3731" clipPathUnits="userSpaceOnUse"><path id="path3729" d="M 694,0 V 6600 H 4407 V 0 Z" clip-rule="evenodd"/></clipPath></defs><g id="g3721" transform="matrix(0,1.3333333,1.3333333,0,-512.47999,-274.71999)"><g id="g3723" transform="scale(0.12)"><path id="path3735" fill="#d9d9d9" fill-opacity="1" fill-rule="evenodd" stroke="none" d="m 2291,4287 h 379 v 142 h -379 z"/><path id="path3737" fill="#aae2ca" fill-opacity="1" fill-rule="evenodd" stroke="none" d="m 1760,3747 c -20,0 -36,17 -36,37 v 628 c 0,20 16,37 36,37 h 145 c 20,0 36,-17 36,-37 v -628 c 0,-20 -16,-37 -36,-37"/><path id="path3739" fill="#7ca694" fill-opacity="1" fill-rule="nonzero" stroke="none" d="m 1760,3741 h -8 l -1,1 -7,2 h -1 l -6,4 h -1 l -6,5 c 0,0 0,0 0,1 l -5,5 c 0,0 0,1 -1,1 l -3,6 c 0,1 0,1 -1,2 l -2,6 c 0,1 0,1 0,1 v 4 l -1,4 v 629 l 1,5 v 4 1 l 3,7 c 0,0 0,0 0,1 l 3,6 c 1,0 1,1 1,1 l 5,5 c 0,1 0,1 0,1 l 6,5 c 0,0 0,0 1,1 l 6,3 h 1 l 7,3 h 5 l 4,1 h 145 l 4,-1 h 5 l 7,-3 c 1,0 1,0 2,0 l 6,-3 c 0,-1 1,-1 1,-1 l 5,-5 c 1,0 1,0 1,-1 l 5,-5 v -1 l 4,-6 c 0,-1 0,-1 0,-1 l 2,-7 c 0,0 0,-1 1,-1 v -646 c -1,0 -1,0 -1,-1 l -2,-6 c 0,-1 0,-1 0,-2 l -4,-6 v -1 l -5,-5 c 0,-1 0,-1 -1,-1 l -5,-5 h -1 l -6,-4 c -1,0 -1,0 -2,0 l -6,-2 c -1,0 -1,-1 -1,-1 h -8 z m 145,13 h 3 l 4,1 h -1 l 6,2 -1,-1 6,4 -1,-1 5,4 v -1 l 4,6 -1,-1 4,6 -1,-1 2,6 v -1 3 l 1,4 v 631 l -1,4 v -1 l -2,6 1,-1 -4,6 1,-1 -4,6 v -1 l -5,4 1,-1 -6,4 1,-1 -5,2 -3,1 h -151 l -3,-1 -7,-2 2,1 -6,-4 1,1 -6,-4 1,1 -4,-6 v 1 l -3,-6 1,1 -3,-6 1,1 -1,-3 v -635 l 1,-4 -1,1 3,-6 -1,1 3,-6 v 1 l 4,-6 -1,1 6,-4 -2,1 7,-4 -2,1 7,-2 h -1 l 3,-1 h 3"/><g id="g3741" transform="scale(8.33333)"><text id="text3745" fill="#000" fill-opacity="1" fill-rule="nonzero" stroke="none" font-family="Calibri" font-size="9.96" font-variant="normal" font-weight="normal" transform="matrix(0,1,1,0,223.08,460.32)" writing-mode="lr-tb" style="-inkscape-font-specification:Calibri"><tspan id="tspan3743" x="0 5.4 10.2 14.764 16.803 23.045 27.969 33.245 38.169 41.653 46.453 49.813 52.089 57.365" y="0">Ray Generation</tspan></text><text id="text3749" fill="#000" fill-opacity="1" fill-rule="nonzero" stroke="none" font-family="Consolas" font-size="11.52" font-variant="normal" font-weight="normal" transform="matrix(0,1,1,0,251.28,420.84)" writing-mode="lr-tb" style="-inkscape-font-specification:Consolas"><tspan id="tspan3747" x="0 6.362 12.725 19.087 25.449 31.931 38.293 44.656 51.138" y="0">traceNV()</tspan></text></g><path id="path3751" fill="#d9d9d9" fill-opacity="1" fill-rule="evenodd" stroke="none" d="m 2354,3686 c -35,0 -63,28 -63,64 v 697 c 0,35 28,64 63,64 h 256 c 36,0 64,-29 64,-64 v -697 c 0,-36 -28,-64 -64,-64"/><path id="path3753" fill="#000" fill-opacity="1" fill-rule="nonzero" stroke="none" d="m 2355,3685 h -7 l -7,1 -6,1 -6,3 -5,2 -6,4 -5,3 -4,5 -5,4 -3,5 -4,6 -2,5 -3,6 -1,6 -1,7 v 710 l 1,7 1,6 3,6 2,6 4,5 3,5 5,4 4,5 5,3 5,4 6,2 6,3 6,1 7,1 6,1 h 256 l 7,-1 6,-1 7,-1 6,-3 5,-2 6,-4 5,-3 4,-4 4,-5 4,-5 3,-5 3,-6 2,-6 2,-6 1,-7 v -710 l -1,-6 -2,-7 -2,-6 -3,-5 -3,-6 -3,-5 -5,-4 -4,-5 -5,-3 -6,-4 -5,-2 -6,-3 -7,-1 -6,-1 h -7 z m 255,2 h 7 l 6,1 6,1 6,3 5,2 6,3 4,4 5,4 4,4 4,5 3,5 2,6 2,6 2,6 1,6 v 710 l -1,6 -1,6 -3,6 -2,6 -3,5 -4,5 -4,4 -5,4 -4,4 -6,3 -5,3 -6,2 -6,1 -6,1 -7,1 h -255 l -7,-1 -6,-1 -6,-1 -6,-2 -5,-3 -6,-3 -5,-4 -4,-4 -4,-4 -4,-5 -3,-5 -2,-6 -3,-6 -1,-6 -1,-6 v -710 l 1,-6 1,-6 2,-6 3,-5 3,-6 4,-4 4,-5 4,-4 5,-4 5,-3 6,-2 6,-3 6,-1 6,-1 h 7"/><g id="g3755" transform="scale(8.33333)"><text id="text3763" fill="#000" fill-opacity="1" fill-rule="nonzero" stroke="none" font-family="Trebuchet MS" font-size="9.96" font-variant="normal" font-weight="normal" transform="matrix(0,1,1,0,289.68,463.56)" writing-mode="lr-tb" style="-inkscape-font-specification:TrebuchetMS"><tspan id="tspan3757" x="0 5.882 10.8 15.719 21.115 23.996 29.392 33.235 38.511 42.466 45.345 50.749 56.145" y="0">Acceleration </tspan><tspan id="tspan3759" x="7.32 12.12 16.076 19.919 25.315 30.234 34.189 39.585 43.428 48.824" y="11.76">Structure </tspan><tspan id="tspan3761" x="7.44 13.204 17.048 22.324 27.246 32.642 36.485 40.568 45.724" y="23.52">Traversal</tspan></text></g><path id="path3765" fill="#000" fill-opacity="1" fill-rule="nonzero" stroke="none" d="m 1941,4105 h 315 v -14 h -315 z m 308,14 42,-21 -42,-21"/><path id="path3767" fill="#fff" fill-opacity="1" fill-rule="evenodd" stroke="none" d="m 3052,3822 -164,276 164,276 164,-276"/><path id="path3769" fill="#000" fill-opacity="1" fill-rule="nonzero" stroke="none" d="m 3055,3821 c -1,-2 -2,-2 -3,-2 -1,0 -2,0 -3,2 l -164,275 c -1,1 -1,3 0,4 l 164,276 c 1,1 2,1 3,1 1,0 2,0 3,-1 l 164,-276 c 1,-1 1,-3 0,-4 z m 158,279 v -4 l -164,276 h 6 l -164,-276 v 4 l 164,-276 h -6"/><g id="g3771" transform="scale(8.33333)"><text id="text3775" fill="#000" fill-opacity="1" fill-rule="nonzero" stroke="none" font-family="Calibri" font-size="11.52" font-variant="normal" font-weight="normal" transform="matrix(0,1,1,0,369.96,482.28)" writing-mode="lr-tb" style="-inkscape-font-specification:Calibri"><tspan id="tspan3773" x="0 7.199 9.834 13.674" y="0">Hit?</tspan></text></g><path id="path3777" fill="#000" fill-opacity="1" fill-rule="nonzero" stroke="none" d="m 2674,4105 h 179 v -14 h -179 z m 172,14 42,-21 -42,-21"/><path id="path3779" fill="#aae2ca" fill-opacity="1" fill-rule="evenodd" stroke="none" d="m 3348,3210 c -20,0 -36,16 -36,36 v 629 c 0,20 16,36 36,36 h 145 c 20,0 36,-16 36,-36 v -629 c 0,-20 -16,-36 -36,-36"/><path id="path3781" fill="#7ca694" fill-opacity="1" fill-rule="nonzero" stroke="none" d="m 3348,3203 -4,1 h -4 c -1,0 -1,0 -1,0 l -7,3 h -1 l -6,3 c -1,1 -1,1 -1,1 l -6,5 c 0,0 0,0 -1,0 l -4,6 -1,1 -3,6 -1,1 -2,7 v 1 l -1,4 v 637 l 1,5 c 0,0 0,0 0,1 l 2,6 c 0,1 1,1 1,2 l 3,6 1,1 4,5 c 1,1 1,1 1,1 l 6,5 c 0,0 0,0 1,0 l 6,4 h 1 l 7,2 4,1 h 154 l 4,-1 8,-2 c 1,0 1,0 1,0 l 7,-4 c 0,0 0,0 1,0 l 5,-5 c 0,0 1,0 1,-1 l 4,-5 c 1,0 1,-1 1,-1 l 3,-6 c 1,-1 1,-1 1,-2 l 2,-6 c 0,-1 0,-1 0,-1 l 1,-4 v -638 l -1,-4 v -1 l -2,-7 c 0,0 0,-1 -1,-1 l -3,-6 c 0,0 0,-1 -1,-1 l -4,-6 h -1 l -5,-5 c -1,0 -1,0 -1,-1 l -7,-3 c 0,0 0,0 -1,0 l -7,-3 c 0,0 0,0 -1,0 h -3 l -5,-1 z m 145,14 h 3 l 3,1 h -1 l 7,2 -1,-1 6,3 h -1 l 5,4 -1,-1 5,6 -1,-2 3,7 v -2 l 2,7 v -1 642 -1 l -2,6 v -1 l -3,6 1,-1 -5,5 h 1 l -5,4 1,-1 -6,4 1,-1 -6,2 h -3 l -3,1 h -144 l -3,-1 h -3 l -7,-2 1,1 -6,-4 1,1 -5,-4 h 1 l -5,-5 1,1 -3,-6 v 1 l -2,-6 v 1 -642 1 l 2,-7 v 2 l 3,-7 -1,2 5,-6 -1,1 5,-4 h -1 l 6,-3 -1,1 7,-2 h -1 l 3,-1 h 3"/><g id="g3783" transform="scale(8.33333)"><text id="text3787" fill="#000" fill-opacity="1" fill-rule="nonzero" stroke="none" font-family="Calibri" font-size="9.96" font-variant="normal" font-weight="normal" transform="matrix(0,1,1,0,413.64,417.96)" writing-mode="lr-tb" style="-inkscape-font-specification:Calibri"><tspan id="tspan3785" x="0 8.52 10.795 14.634" y="0">Miss</tspan></text></g><path id="path3789" fill="#aae2ca" fill-opacity="1" fill-rule="evenodd" stroke="none" d="m 3348,4233 c -20,0 -36,17 -36,37 v 628 c 0,20 16,37 36,37 h 145 c 20,0 36,-17 36,-37 v -628 c 0,-20 -16,-37 -36,-37"/><path id="path3791" fill="#7ca694" fill-opacity="1" fill-rule="nonzero" stroke="none" d="m 3348,4227 h -8 c -1,0 -1,0 -1,1 l -7,2 h -1 l -6,4 c -1,0 -1,0 -1,0 l -6,5 c 0,0 0,0 -1,1 l -4,5 -1,1 -3,6 c 0,1 -1,1 -1,1 l -2,7 c 0,1 0,1 0,1 l -1,4 v 637 l 1,5 c 0,0 0,0 0,1 l 2,7 c 0,0 1,0 1,1 l 3,6 1,1 4,5 c 1,1 1,1 1,1 l 6,5 c 0,0 0,0 1,0 l 6,4 h 1 l 7,2 4,1 h 5 l 145,1 4,-1 h 4 l 8,-3 c 1,0 1,0 1,0 l 7,-4 c 0,0 0,0 1,0 l 5,-5 c 0,0 1,0 1,-1 l 4,-5 c 1,0 1,-1 1,-1 l 3,-6 c 1,-1 1,-1 1,-1 l 2,-7 c 0,-1 0,-1 0,-1 l 1,-4 v -637 l -1,-5 c 0,0 0,0 0,-1 l -2,-7 c 0,0 0,0 -1,-1 l -3,-6 c 0,0 0,-1 -1,-1 l -4,-5 c 0,-1 -1,-1 -1,-1 l -5,-5 c -1,0 -1,0 -1,0 l -7,-4 c 0,0 0,0 -1,0 l -7,-2 c 0,-1 0,-1 -1,-1 h -8 z m 145,13 h 3 l 3,1 h -1 l 7,2 -1,-1 6,4 -1,-1 5,4 -1,-1 5,6 -1,-1 3,6 v -1 l 2,6 v -1 642 -1 l -2,6 v -1 l -3,6 1,-1 -5,6 1,-1 -5,4 1,-1 -6,4 1,-1 -6,2 -3,1 h -150 l -3,-1 -7,-2 1,1 -6,-4 1,1 -5,-4 1,1 -5,-6 1,1 -3,-6 v 1 l -2,-6 v 1 -642 1 l 2,-6 v 1 l 3,-6 -1,1 5,-6 -1,1 5,-4 -1,1 6,-4 -1,1 7,-2 h -1 l 3,-1 h 3"/><g id="g3793" transform="scale(8.33333)"><text id="text3797" fill="#000" fill-opacity="1" fill-rule="nonzero" stroke="none" font-family="Calibri" font-size="9.96" font-variant="normal" font-weight="normal" transform="matrix(0,1,1,0,413.64,528.48)" writing-mode="lr-tb" style="-inkscape-font-specification:Calibri"><tspan id="tspan3795" x="0 5.278 7.553 12.83 16.669 21.593 25.432 28.792 31.191 37.431 39.706" y="0">Closest Hit</tspan></text></g><path id="path3799" fill="#aae2ca" fill-opacity="1" fill-rule="evenodd" stroke="none" d="m 2597,4719 c -20,0 -36,17 -36,37 v 628 c 0,20 16,37 36,37 h 145 c 20,0 36,-17 36,-37 v -628 c 0,-20 -16,-37 -36,-37"/><path id="path3801" fill="#7ca694" fill-opacity="1" fill-rule="nonzero" stroke="none" d="m 2597,4713 h -8 l -1,1 -7,2 h -1 l -6,4 h -1 l -6,5 c 0,0 0,0 0,1 l -5,5 c 0,0 0,1 -1,1 l -3,6 c 0,1 0,1 0,2 l -3,6 c 0,1 0,1 0,1 v 4 l -1,4 v 630 l 1,4 v 4 1 l 3,7 c 0,0 0,0 0,1 l 3,6 c 1,0 1,1 1,1 l 5,5 c 0,1 0,1 0,1 l 6,5 c 0,0 1,0 1,1 l 6,3 h 1 l 7,3 h 5 l 4,1 h 145 l 4,-1 h 5 l 7,-3 c 1,0 1,0 2,0 l 6,-3 c 0,-1 1,-1 1,-1 l 5,-5 c 1,0 1,0 1,-1 l 5,-5 v -1 l 4,-6 c 0,-1 0,-1 0,-1 l 2,-7 1,-1 v -646 c 0,0 -1,0 -1,-1 l -2,-6 c 0,-1 0,-1 0,-2 l -4,-6 v -1 l -5,-5 c 0,-1 0,-1 -1,-1 l -5,-5 h -1 l -6,-4 c -1,0 -1,0 -2,0 l -6,-2 c -1,0 -1,-1 -1,-1 h -8 z m 145,13 h 3 l 4,1 h -1 l 6,2 -1,-1 6,4 -1,-1 6,4 -1,-1 4,6 -1,-1 4,6 -1,-1 2,6 v -1 3 l 1,4 v 631 l -1,4 v -1 l -2,7 1,-2 -4,7 1,-2 -4,6 1,-1 -6,4 h 1 l -6,3 1,-1 -5,2 -3,1 h -151 l -3,-1 -7,-2 2,1 -6,-3 h 1 l -6,-4 1,1 -4,-6 v 2 l -3,-7 1,2 -2,-7 v 1 l -1,-3 v -635 l 1,-4 v 1 l 2,-6 -1,1 3,-6 v 1 l 4,-6 -1,1 6,-4 -2,1 7,-4 -2,1 7,-2 h -1 3 l 3,-1"/><g id="g3803" transform="scale(8.33333)"><text id="text3807" fill="#000" fill-opacity="1" fill-rule="nonzero" stroke="none" font-family="Calibri" font-size="9.96" font-variant="normal" font-weight="normal" transform="matrix(0,1,1,0,323.52,583.92)" writing-mode="lr-tb" style="-inkscape-font-specification:Calibri"><tspan id="tspan3805" x="0 2.52 7.797 11.157 16.081 19.565 23.404 28.328 32.53 35.89 38.165 43.442" y="0">Intersection</tspan></text></g><path id="path3809" fill="#aae2ca" fill-opacity="1" fill-rule="evenodd" stroke="none" d="m 2261,4719 c -20,0 -36,17 -36,37 v 628 c 0,20 16,37 36,37 h 145 c 20,0 36,-17 36,-37 v -628 c 0,-20 -16,-37 -36,-37"/><path id="path3811" fill="#7ca694" fill-opacity="1" fill-rule="nonzero" stroke="none" d="m 2261,4713 h -8 l -1,1 -7,2 h -1 l -6,4 h -1 l -6,5 c 0,0 0,0 0,1 l -5,5 c 0,0 0,1 -1,1 l -3,6 c 0,1 0,1 0,2 l -3,6 c 0,1 0,1 0,1 v 4 l -1,4 v 630 l 1,4 v 4 1 l 3,7 c 0,0 0,0 0,1 l 3,6 c 1,0 1,1 1,1 l 5,5 c 0,1 0,1 0,1 l 6,5 c 0,0 1,0 1,1 l 6,3 h 1 l 7,3 h 5 l 4,1 h 145 l 4,-1 h 5 l 7,-3 c 1,0 1,0 2,0 l 6,-3 c 0,-1 1,-1 1,-1 l 5,-5 c 1,0 1,0 1,-1 l 5,-5 v -1 l 4,-6 c 0,-1 0,-1 0,-1 l 2,-7 c 0,0 0,-1 1,-1 v -646 c -1,0 -1,0 -1,-1 l -2,-6 c 0,-1 0,-1 0,-2 l -4,-6 v -1 l -5,-5 c 0,-1 0,-1 -1,-1 l -5,-5 h -1 l -6,-4 c -1,0 -1,0 -2,0 l -6,-2 c -1,0 -1,-1 -1,-1 h -8 z m 145,13 h 3 l 4,1 h -1 l 6,2 -1,-1 6,4 -1,-1 6,4 -1,-1 4,6 -1,-1 4,6 -1,-1 2,6 v -1 3 l 1,4 v 631 l -1,4 v -1 l -2,7 1,-2 -4,7 1,-2 -4,6 1,-1 -6,4 h 1 l -6,3 1,-1 -5,2 -3,1 h -151 l -3,-1 -7,-2 2,1 -6,-3 h 1 l -6,-4 1,1 -4,-6 v 2 l -3,-7 1,2 -2,-7 v 1 l -1,-3 v -635 l 1,-4 v 1 l 2,-6 -1,1 3,-6 v 1 l 4,-6 -1,1 6,-4 -2,1 7,-4 -2,1 7,-2 h -1 3 l 3,-1"/><g id="g3813" transform="scale(8.33333)"><text id="text3817" fill="#000" fill-opacity="1" fill-rule="nonzero" stroke="none" font-family="Calibri" font-size="9.96" font-variant="normal" font-weight="normal" transform="matrix(0,1,1,0,283.2,593.52)" writing-mode="lr-tb" style="-inkscape-font-specification:Calibri"><tspan id="tspan3815" x="0 5.764 11.04 15.604 17.643 23.882 26.157" y="0">Any-Hit</tspan></text></g><path id="path3819" fill="#000" fill-opacity="1" fill-rule="nonzero" stroke="none" d="m 2226,5063 h -6 1 l -6,-2 -4,-2 -5,-3 -5,-4 -5,-5 -6,-5 -5,-7 -5,-7 -5,-8 -5,-9 -5,-10 -5,-10 -4,-11 -5,-11 -4,-13 -5,-12 -4,-13 -3,-14 -4,-14 -3,-14 -4,-15 -5,-31 -5,-31 -3,-32 -2,-33 -1,-33 1,-17 v -16 l 2,-16 2,-17 2,-16 3,-16 3,-16 3,-15 4,-16 5,-15 5,-14 5,-15 5,-14 6,-13 6,-13 7,-13 6,-12 7,-11 7,-11 8,-10 7,-10 8,-9 8,-8 8,-8 8,-6 8,-6 8,-5 -1,1 11,-4 -5,-13 -11,4 h -1 l -9,6 -9,6 -9,7 -8,8 -8,9 -9,9 -7,11 -8,10 -8,12 -7,12 -7,12 -6,13 -7,13 -5,14 -6,15 -5,14 -5,16 -5,15 -4,16 -4,16 -3,16 -3,16 -2,17 -2,16 -1,17 -1,17 v 51 l 2,33 4,33 4,32 6,31 3,15 4,15 3,14 4,14 4,13 5,13 4,13 5,11 5,12 5,10 5,11 5,9 6,9 5,8 6,7 6,6 6,6 7,5 6,4 7,3 6,1 c 0,0 0,0 1,0 l 6,1 z m 30,-675 35,-30 -46,-10"/><path id="path3821" fill="#000" fill-opacity="1" fill-rule="nonzero" stroke="none" d="m 2670,4351 11,1 12,1 11,3 11,3 12,5 11,5 10,7 11,7 11,8 10,8 10,10 9,10 10,11 9,11 9,12 8,12 8,13 8,14 8,14 7,14 6,15 6,15 6,15 5,16 4,16 4,16 4,17 3,16 2,17 2,17 1,17 v 17 l -1,33 -2,34 -3,33 -5,32 -5,31 -3,15 -4,15 -4,14 -3,14 -5,13 -4,13 -4,12 -5,12 -5,12 -5,10 -5,10 -5,10 -6,8 -5,8 -6,8 c -1,0 -1,1 -1,1 l -10,7 -8,-11 9,-7 -1,1 5,-6 6,-8 5,-8 5,-9 5,-9 4,-11 5,-11 5,-11 4,-12 4,-13 4,-13 4,-14 4,-14 3,-14 3,-15 6,-30 4,-32 4,-32 2,-33 v -49 l -1,-17 -1,-16 -3,-16 -3,-16 -3,-16 -4,-16 -4,-16 -5,-15 -6,-15 -6,-15 -6,-14 -7,-14 -7,-13 -7,-13 -8,-13 -8,-12 -9,-11 -8,-11 -9,-11 -10,-9 -9,-9 -10,-8 -10,-8 -10,-6 -10,-6 -10,-5 -10,-5 -10,-3 -10,-2 -11,-2 h -10 z m 155,718 -46,1 26,-38"/><path id="path3823" fill="#000" fill-opacity="1" fill-rule="nonzero" stroke="none" d="m 2561,5077 h -84 v -14 h 84 z m -77,14 -42,-21 42,-21"/><path id="path3825" fill="#000" fill-opacity="1" fill-rule="nonzero" stroke="none" d="m 3045,4374 v 210 c 0,4 3,7 7,7 h 226 v -14 h -226 l 7,7 v -210 z m 226,231 41,-21 -41,-21"/><path id="path3827" fill="#000" fill-opacity="1" fill-rule="nonzero" stroke="none" d="m 3045,3822 v -261 c 0,-4 3,-7 7,-7 h 226 v 14 h -226 l 7,-7 v 261 z m 226,-282 41,21 -41,20"/><g id="g3829" transform="scale(8.33333)"><text id="text3833" fill="#000" fill-opacity="1" fill-rule="nonzero" stroke="none" font-family="Trebuchet MS" font-size="13.2" font-variant="normal" font-weight="bold" transform="matrix(0,1,1,0,381.72,565.32)" writing-mode="lr-tb" style="-inkscape-font-specification:'TrebuchetMS Bold'"><tspan id="tspan3831" x="0 7.084 14.648 -174.12 -166.324" y="0">yesno</tspan></text></g></g></g></svg>