<svg xmlns="http://www.w3.org/2000/svg" width="160" height="160" version="1.1" viewBox="-500 -500 11000 11000"><desc>VK_SAMPLE_COUNT_8_BIT</desc><defs><marker id="Triangle" markerHeight="8" markerUnits="strokeWidth" markerWidth="8" orient="auto" refX="0" refY="5" viewBox="0 0 10 10"><path d="M 0 0 L 10 5 L 0 10 z"/></marker></defs><g><line x1="0" x2="10000" y1="0" y2="0" stroke="#000" stroke-width="50" marker-end="url(#Triangle)"/><line x1="0" x2="0" y1="0" y2="10000" stroke="#000" stroke-width="50" marker-end="url(#Triangle)"/><line x1="0" x2="10000" y1="10000" y2="10000" stroke="#000" stroke-dasharray="100" stroke-width="10"/><line x1="10000" x2="10000" y1="0" y2="10000" stroke="#000" stroke-dasharray="100" stroke-width="10"/><line x1="0" x2="10000" y1="625" y2="625" stroke="#000" stroke-dasharray="100" stroke-width="10"/><line x1="0" x2="10000" y1="1875" y2="1875" stroke="#000" stroke-dasharray="100" stroke-width="10"/><line x1="0" x2="10000" y1="3125" y2="3125" stroke="#000" stroke-dasharray="100" stroke-width="10"/><line x1="0" x2="10000" y1="4375" y2="4375" stroke="#000" stroke-dasharray="100" stroke-width="10"/><line x1="0" x2="10000" y1="5625" y2="5625" stroke="#000" stroke-dasharray="100" stroke-width="10"/><line x1="0" x2="10000" y1="6875" y2="6875" stroke="#000" stroke-dasharray="100" stroke-width="10"/><line x1="0" x2="10000" y1="8125" y2="8125" stroke="#000" stroke-dasharray="100" stroke-width="10"/><line x1="0" x2="10000" y1="9375" y2="9375" stroke="#000" stroke-dasharray="100" stroke-width="10"/><line x1="625" x2="625" y1="0" y2="10000" stroke="#000" stroke-dasharray="100" stroke-width="10"/><line x1="1875" x2="1875" y1="0" y2="10000" stroke="#000" stroke-dasharray="100" stroke-width="10"/><line x1="3125" x2="3125" y1="0" y2="10000" stroke="#000" stroke-dasharray="100" stroke-width="10"/><line x1="4375" x2="4375" y1="0" y2="10000" stroke="#000" stroke-dasharray="100" stroke-width="10"/><line x1="5625" x2="5625" y1="0" y2="10000" stroke="#000" stroke-dasharray="100" stroke-width="10"/><line x1="6875" x2="6875" y1="0" y2="10000" stroke="#000" stroke-dasharray="100" stroke-width="10"/><line x1="8125" x2="8125" y1="0" y2="10000" stroke="#000" stroke-dasharray="100" stroke-width="10"/><line x1="9375" x2="9375" y1="0" y2="10000" stroke="#000" stroke-dasharray="100" stroke-width="10"/><circle cx="5625" cy="3125" r="200" fill="#000"/><text x="5625" y="3125" fill="red" font-size="1100" transform="translate(00200 -00200)">0</text><circle cx="4375" cy="6875" r="200" fill="#000"/><text x="4375" y="6875" fill="red" font-size="1100" transform="translate(00200 -00200)">1</text><circle cx="8125" cy="5625" r="200" fill="#000"/><text x="8125" y="5625" fill="red" font-size="1100" transform="translate(00200 -00200)">2</text><circle cx="3125" cy="1875" r="200" fill="#000"/><text x="3125" y="1875" fill="red" font-size="1100" transform="translate(00200 -00200)">3</text><circle cx="1875" cy="8125" r="200" fill="#000"/><text x="1875" y="8125" fill="red" font-size="1100" transform="translate(00200 -00200)">4</text><circle cx="625" cy="4375" r="200" fill="#000"/><text x="625" y="4375" fill="red" font-size="1100" transform="translate(00200 -00200)">5</text><circle cx="6875" cy="9375" r="200" fill="#000"/><text x="6875" y="9375" fill="red" font-size="1100" transform="translate(00200 -00200)">6</text><circle cx="9375" cy="625" r="200" fill="#000"/><text x="9375" y="625" fill="red" font-size="1100" transform="translate(00200 00700)">7</text></g></svg>