<svg xmlns="http://www.w3.org/2000/svg" width="160" height="160" version="1.1" viewBox="-500 -500 11000 11000"><desc>VK_SAMPLE_COUNT_4_BIT</desc><defs><marker id="Triangle" markerHeight="8" markerUnits="strokeWidth" markerWidth="8" orient="auto" refX="0" refY="5" viewBox="0 0 10 10"><path d="M 0 0 L 10 5 L 0 10 z"/></marker></defs><g><line x1="0" x2="10000" y1="0" y2="0" stroke="#000" stroke-width="50" marker-end="url(#Triangle)"/><line x1="0" x2="0" y1="0" y2="10000" stroke="#000" stroke-width="50" marker-end="url(#Triangle)"/><line x1="0" x2="10000" y1="10000" y2="10000" stroke="#000" stroke-dasharray="100" stroke-width="10"/><line x1="10000" x2="10000" y1="0" y2="10000" stroke="#000" stroke-dasharray="100" stroke-width="10"/><line x1="0" x2="10000" y1="1250" y2="1250" stroke="#000" stroke-dasharray="100" stroke-width="10"/><line x1="0" x2="10000" y1="3750" y2="3750" stroke="#000" stroke-dasharray="100" stroke-width="10"/><line x1="0" x2="10000" y1="6250" y2="6250" stroke="#000" stroke-dasharray="100" stroke-width="10"/><line x1="0" x2="10000" y1="8750" y2="8750" stroke="#000" stroke-dasharray="100" stroke-width="10"/><line x1="1250" x2="1250" y1="0" y2="10000" stroke="#000" stroke-dasharray="100" stroke-width="10"/><line x1="3750" x2="3750" y1="0" y2="10000" stroke="#000" stroke-dasharray="100" stroke-width="10"/><line x1="6250" x2="6250" y1="0" y2="10000" stroke="#000" stroke-dasharray="100" stroke-width="10"/><line x1="8750" x2="8750" y1="0" y2="10000" stroke="#000" stroke-dasharray="100" stroke-width="10"/><circle cx="3750" cy="1250" r="200" fill="#000"/><text x="3750" y="1250" fill="red" font-size="1100" transform="translate(00200 -00200)">0</text><circle cx="8750" cy="3750" r="200" fill="#000"/><text x="8750" y="3750" fill="red" font-size="1100" transform="translate(00200 -00200)">1</text><circle cx="1250" cy="6250" r="200" fill="#000"/><text x="1250" y="6250" fill="red" font-size="1100" transform="translate(00200 -00200)">2</text><circle cx="6250" cy="8750" r="200" fill="#000"/><text x="6250" y="8750" fill="red" font-size="1100" transform="translate(00200 -00200)">3</text></g></svg>