<svg xmlns="http://www.w3.org/2000/svg" xmlns:svg="http://www.w3.org/2000/svg" id="svg5072" width="806.465" height="479.934" version="1.1" viewBox="0 0 213.377 126.983"><metadata id="metadata5069"/><g id="layer1" transform="translate(5.8699862,-15.045569)"><text id="text7094" x="39.688" y="19.188" fill="#000" fill-opacity="1" stroke="none" stroke-width=".265" font-family="sans-serif" font-size="10.583" font-style="normal" font-weight="normal" letter-spacing="0" word-spacing="0" xml:space="preserve" style="line-height:1.25"><tspan font-stretch="normal" style="-inkscape-font-specification:'sans-serif, Normal';font-variant-ligatures:normal;font-variant-caps:normal;font-variant-numeric:normal;font-feature-settings:normal;text-align:center" id="tspan7092" x="39.688" y="19.188" stroke-width=".265" font-family="sans-serif" font-size="4.233" font-style="normal" font-variant="normal" font-weight="normal" text-anchor="middle" writing-mode="lr-tb">Array Layer 0</tspan></text><text id="text7094-5" x="97.896" y="19.187" fill="#000" fill-opacity="1" stroke="none" stroke-width=".265" font-family="sans-serif" font-size="10.583" font-style="normal" font-weight="normal" letter-spacing="0" word-spacing="0" xml:space="preserve" style="line-height:1.25"><tspan font-stretch="normal" style="-inkscape-font-specification:'sans-serif, Normal';font-variant-ligatures:normal;font-variant-caps:normal;font-variant-numeric:normal;font-feature-settings:normal;text-align:center" id="tspan7092-3" x="97.896" y="19.187" stroke-width=".265" font-family="sans-serif" font-size="4.233" font-style="normal" font-variant="normal" font-weight="normal" text-anchor="middle" writing-mode="lr-tb">Array Layer 1</tspan></text><text id="text7094-6" x="156.104" y="19.187" fill="#000" fill-opacity="1" stroke="none" stroke-width=".265" font-family="sans-serif" font-size="10.583" font-style="normal" font-weight="normal" letter-spacing="0" word-spacing="0" xml:space="preserve" style="line-height:1.25"><tspan font-stretch="normal" style="-inkscape-font-specification:'sans-serif, Normal';font-variant-ligatures:normal;font-variant-caps:normal;font-variant-numeric:normal;font-feature-settings:normal;text-align:center" id="tspan7092-0" x="156.104" y="19.187" stroke-width=".265" font-family="sans-serif" font-size="4.233" font-style="normal" font-variant="normal" font-weight="normal" text-anchor="middle" writing-mode="lr-tb">Array Layer 2</tspan></text><text id="text7094-67" x="2.646" y="48.292" fill="#000" fill-opacity="1" stroke="none" stroke-width=".265" font-family="sans-serif" font-size="4.233" font-stretch="normal" font-style="normal" font-variant="normal" font-weight="normal" letter-spacing="0" text-anchor="middle" word-spacing="0" writing-mode="lr-tb" xml:space="preserve" style="line-height:1.25;-inkscape-font-specification:'sans-serif, Normal';font-variant-ligatures:normal;font-variant-caps:normal;font-variant-numeric:normal;font-feature-settings:normal;text-align:center"><tspan font-stretch="normal" style="-inkscape-font-specification:'sans-serif, Normal';font-variant-ligatures:normal;font-variant-caps:normal;font-variant-numeric:normal;font-feature-settings:normal;text-align:center" id="tspan7152" x="2.646" y="48.292" stroke-width=".265" font-family="sans-serif" font-size="4.233" font-style="normal" font-variant="normal" font-weight="normal" text-anchor="middle" writing-mode="lr-tb">Mip</tspan><tspan font-stretch="normal" style="-inkscape-font-specification:'sans-serif, Normal';font-variant-ligatures:normal;font-variant-caps:normal;font-variant-numeric:normal;font-feature-settings:normal;text-align:center" id="tspan7156" x="2.646" y="53.583" stroke-width=".265" font-family="sans-serif" font-size="4.233" font-style="normal" font-variant="normal" font-weight="normal" text-anchor="middle" writing-mode="lr-tb">Level 0</tspan></text><text id="text7094-67-1" x="2.646" y="93.271" fill="#000" fill-opacity="1" stroke="none" stroke-width=".265" font-family="sans-serif" font-size="4.233" font-stretch="normal" font-style="normal" font-variant="normal" font-weight="normal" letter-spacing="0" text-anchor="middle" word-spacing="0" writing-mode="lr-tb" xml:space="preserve" style="line-height:1.25;-inkscape-font-specification:'sans-serif, Normal';font-variant-ligatures:normal;font-variant-caps:normal;font-variant-numeric:normal;font-feature-settings:normal;text-align:center"><tspan font-stretch="normal" style="-inkscape-font-specification:'sans-serif, Normal';font-variant-ligatures:normal;font-variant-caps:normal;font-variant-numeric:normal;font-feature-settings:normal;text-align:center" id="tspan7152-2" x="2.646" y="93.271" stroke-width=".265" font-family="sans-serif" font-size="4.233" font-style="normal" font-variant="normal" font-weight="normal" text-anchor="middle" writing-mode="lr-tb">Mip</tspan><tspan font-stretch="normal" style="-inkscape-font-specification:'sans-serif, Normal';font-variant-ligatures:normal;font-variant-caps:normal;font-variant-numeric:normal;font-feature-settings:normal;text-align:center" id="tspan7156-6" x="2.646" y="98.563" stroke-width=".265" font-family="sans-serif" font-size="4.233" font-style="normal" font-variant="normal" font-weight="normal" text-anchor="middle" writing-mode="lr-tb">Level 1</tspan></text><text id="text7094-67-2-1" x="2.646" y="127.667" fill="#000" fill-opacity="1" stroke="none" stroke-width=".265" font-family="sans-serif" font-size="4.233" font-stretch="normal" font-style="normal" font-variant="normal" font-weight="normal" letter-spacing="0" text-anchor="middle" word-spacing="0" writing-mode="lr-tb" xml:space="preserve" style="line-height:1.25;-inkscape-font-specification:'sans-serif, Normal';font-variant-ligatures:normal;font-variant-caps:normal;font-variant-numeric:normal;font-feature-settings:normal;text-align:center"><tspan font-stretch="normal" style="-inkscape-font-specification:'sans-serif, Normal';font-variant-ligatures:normal;font-variant-caps:normal;font-variant-numeric:normal;font-feature-settings:normal;text-align:center" id="tspan7156-0-4" x="2.646" y="127.667" stroke-width=".265" font-family="sans-serif" font-size="4.233" font-style="normal" font-variant="normal" font-weight="normal" text-anchor="middle" writing-mode="lr-tb">Mip Tail</tspan></text><g id="g1301" transform="translate(1.3229068,-13.229199)"><rect id="rect6319-7-9-4" width="5.292" height="5.292" x="150.813" y="147.51" fill="red" fill-opacity="1" stroke="#000" stroke-dasharray="none" stroke-dashoffset="0" stroke-miterlimit="4" stroke-opacity="1" stroke-width=".265"/><rect id="rect5619-4-1-6-6-0-6-8" width="5.292" height="5.292" x="150.813" y="139.573" fill="#fff" fill-opacity="1" stroke="#000" stroke-dasharray="1.06 1.06" stroke-dashoffset="0" stroke-miterlimit="4" stroke-opacity="1" stroke-width=".265"/><rect id="rect5619-6-8-6-5-2" width="5.292" height="5.292" x="150.813" y="131.635" fill="gray" fill-opacity="1" stroke="#000" stroke-dasharray="none" stroke-dashoffset="0" stroke-miterlimit="4" stroke-opacity="1" stroke-width=".265"/><rect id="rect8983-1" width="55.563" height="29.104" x="149.49" y="125.021" fill="none" fill-opacity="1" stroke="#000" stroke-dasharray="1.06 1.06" stroke-dashoffset="0" stroke-miterlimit="4" stroke-opacity="1" stroke-width=".265"/><text id="text823-4-2-9-4-7-9-85-3" x="177.271" y="128.99" fill="#000" fill-opacity="1" stroke="none" stroke-width=".397" font-family="sans-serif" font-size="4.233" font-stretch="normal" font-style="normal" font-variant="normal" font-weight="normal" letter-spacing="0" text-anchor="middle" word-spacing="0" writing-mode="lr-tb" xml:space="preserve" style="line-height:1.25;-inkscape-font-specification:'sans-serif, Normal';font-variant-ligatures:normal;font-variant-caps:normal;font-variant-numeric:normal;font-feature-settings:normal;text-align:center"><tspan font-stretch="normal" style="-inkscape-font-specification:'sans-serif, Normal';font-variant-ligatures:normal;font-variant-caps:normal;font-variant-numeric:normal;font-feature-settings:normal;text-align:center" id="tspan825-6-0-2-5-6-26-7-3" x="177.271" y="128.99" stroke-width=".397" font-family="sans-serif" font-size="4.233" font-style="normal" font-variant="normal" font-weight="normal" text-anchor="middle" writing-mode="lr-tb">Legend</tspan></text><text id="text823-4-2-9-4-7-9-85-3-6" x="157.427" y="135.604" fill="#000" fill-opacity="1" stroke="none" stroke-width=".397" font-family="sans-serif" font-size="4.233" font-stretch="normal" font-style="normal" font-variant="normal" font-weight="normal" letter-spacing="0" text-anchor="start" word-spacing="0" writing-mode="lr-tb" xml:space="preserve" style="line-height:1.25;-inkscape-font-specification:'sans-serif, Normal';font-variant-ligatures:normal;font-variant-caps:normal;font-variant-numeric:normal;font-feature-settings:normal;text-align:start"><tspan font-stretch="normal" style="-inkscape-font-specification:'sans-serif, Normal';font-variant-ligatures:normal;font-variant-caps:normal;font-variant-numeric:normal;font-feature-settings:normal;text-align:start" id="tspan825-6-0-2-5-6-26-7-3-4" x="157.427" y="135.604" stroke-width=".397" font-family="sans-serif" font-size="4.233" font-style="normal" font-variant="normal" font-weight="normal" text-anchor="start" writing-mode="lr-tb">Image Pixel Data</tspan></text><text id="text823-4-2-9-4-7-9-85-3-6-5" x="157.427" y="143.542" fill="#000" fill-opacity="1" stroke="none" stroke-width=".397" font-family="sans-serif" font-size="4.233" font-stretch="normal" font-style="normal" font-variant="normal" font-weight="normal" letter-spacing="0" text-anchor="start" word-spacing="0" writing-mode="lr-tb" xml:space="preserve" style="line-height:1.25;-inkscape-font-specification:'sans-serif, Normal';font-variant-ligatures:normal;font-variant-caps:normal;font-variant-numeric:normal;font-feature-settings:normal;text-align:start"><tspan font-stretch="normal" style="-inkscape-font-specification:'sans-serif, Normal';font-variant-ligatures:normal;font-variant-caps:normal;font-variant-numeric:normal;font-feature-settings:normal;text-align:start" id="tspan825-6-0-2-5-6-26-7-3-4-2" x="157.427" y="143.542" stroke-width=".397" font-family="sans-serif" font-size="4.233" font-style="normal" font-variant="normal" font-weight="normal" text-anchor="start" writing-mode="lr-tb">Sparse Memory Block</tspan></text><text id="text823-4-2-9-4-7-9-85-3-6-6" x="157.427" y="151.479" fill="#000" fill-opacity="1" stroke="none" stroke-width=".397" font-family="sans-serif" font-size="4.233" font-stretch="normal" font-style="normal" font-variant="normal" font-weight="normal" letter-spacing="0" text-anchor="start" word-spacing="0" writing-mode="lr-tb" xml:space="preserve" style="line-height:1.25;-inkscape-font-specification:'sans-serif, Normal';font-variant-ligatures:normal;font-variant-caps:normal;font-variant-numeric:normal;font-feature-settings:normal;text-align:start"><tspan font-stretch="normal" style="-inkscape-font-specification:'sans-serif, Normal';font-variant-ligatures:normal;font-variant-caps:normal;font-variant-numeric:normal;font-feature-settings:normal;text-align:start" id="tspan825-6-0-2-5-6-26-7-3-4-1" x="157.427" y="151.479" stroke-width=".397" font-family="sans-serif" font-size="4.233" font-style="normal" font-variant="normal" font-weight="normal" text-anchor="start" writing-mode="lr-tb">Mip Tail Data</tspan></text></g><path id="path1236" fill="gray" fill-opacity="1" stroke="#000" stroke-linecap="butt" stroke-linejoin="miter" stroke-opacity="1" stroke-width=".265" d="M 13.229167,21.833334 H 66.145833 V 74.75 H 13.229167 Z m 5.291667,0 V 74.75 M 29.104167,21.833334 V 74.75 m -5.291667,0 V 21.833334 m 10.583334,0 V 74.75 m 5.291666,0 V 21.833334 m 5.291666,0 V 74.75 m 5.291667,0 V 21.833334 m 5.291667,0 V 74.75 m 5.291666,0 V 21.833334 M 66.145833,27.125 H 13.229167 m 0,5.291667 h 52.916666 m 0,5.291667 H 13.229167 m 0,5.291666 h 52.916666 m 0,5.291667 H 13.229167 m 0,5.291667 h 52.916666 m 0,5.291666 H 13.229167 m 0,5.291667 h 52.916666 m 0,5.291667 H 13.229167"/><path id="path1236-3" fill="gray" fill-opacity="1" stroke="#000" stroke-linecap="butt" stroke-linejoin="miter" stroke-opacity="1" stroke-width=".265" d="M 71.437501,21.833335 H 124.35416 V 74.75 H 71.437501 Z m 5.291667,0 V 74.75 M 87.312501,21.833335 V 74.75 m -5.291667,0 V 21.833335 m 10.583334,0 V 74.75 m 5.291666,0 V 21.833335 m 5.291666,0 V 74.75 m 5.29167,0 V 21.833335 m 5.29166,0 V 74.75 m 5.29167,0 V 21.833335 m 5.29166,5.291666 H 71.437501 m 0,5.291666 h 52.916659 m 0,5.291667 H 71.437501 m 0,5.291666 h 52.916659 m 0,5.291667 H 71.437501 m 0,5.291667 h 52.916659 m 0,5.291666 H 71.437501 m 0,5.291667 h 52.916659 m 0,5.291667 H 71.437501"/><path id="path1236-1" fill="gray" fill-opacity="1" stroke="#000" stroke-linecap="butt" stroke-linejoin="miter" stroke-opacity="1" stroke-width=".265" d="M 129.64583,21.833334 H 182.5625 V 74.75 h -52.91667 z m 5.29167,0 V 74.75 M 145.52083,21.833334 V 74.75 m -5.29166,0 V 21.833334 m 10.58333,0 V 74.75 m 5.29167,0 V 21.833334 m 5.29166,0 V 74.75 m 5.29167,0 V 21.833334 m 5.29167,0 V 74.75 m 5.29166,0 V 21.833334 M 182.5625,27.125 h -52.91667 m 0,5.291667 h 52.91667 m 0,5.291667 h -52.91667 m 0,5.291666 h 52.91667 m 0,5.291667 h -52.91667 m 0,5.291667 h 52.91667 m 0,5.291666 h -52.91667 m 0,5.291667 h 52.91667 m 0,5.291667 h -52.91667"/><path id="path1299" fill="gray" fill-opacity="1" stroke="#000" stroke-dasharray="none" stroke-linecap="butt" stroke-linejoin="miter" stroke-miterlimit="4" stroke-opacity="1" stroke-width=".254" d="M 13.229167,80.041667 H 39.687305 V 106.49981 H 13.229167 Z m 5.291628,0 v 26.458143 m 5.291627,-26.458143 v 26.458143 m 5.291627,-26.458143 v 26.458143 m 5.291628,-26.458143 v 26.458143 m -21.16651,-5.29163 h 26.458138 m 0,-5.291631 H 13.229167 m 0,-5.291627 h 26.458138 m 0,-5.291628 H 13.229167"/><path id="path1299-5" fill="gray" fill-opacity="1" stroke="#000" stroke-dasharray="none" stroke-linecap="butt" stroke-linejoin="miter" stroke-miterlimit="4" stroke-opacity="1" stroke-width=".254" d="M 71.437501,80.041667 H 97.895639 V 106.49981 H 71.437501 Z m 5.291628,0 v 26.458143 m 5.291627,-26.458143 v 26.458143 m 5.291627,-26.458143 v 26.458143 m 5.291628,-26.458143 v 26.458143 m -21.16651,-5.29163 h 26.458138 m 0,-5.291631 H 71.437501 m 0,-5.291627 h 26.458138 m 0,-5.291628 H 71.437501"/><path id="path1299-7" fill="gray" fill-opacity="1" stroke="#000" stroke-dasharray="none" stroke-linecap="butt" stroke-linejoin="miter" stroke-miterlimit="4" stroke-opacity="1" stroke-width=".254" d="m 129.64583,80.041667 h 26.45814 v 26.458143 h -26.45814 z m 5.29163,0 v 26.458143 m 5.29163,-26.458143 v 26.458143 m 5.29162,-26.458143 v 26.458143 m 5.29163,-26.458143 v 26.458143 m -21.16651,-5.29163 h 26.45814 m 0,-5.291631 h -26.45814 m 0,-5.291627 h 26.45814 m 0,-5.291628 h -26.45814"/><path id="path1299-6" fill="red" fill-opacity="1" stroke="#000" stroke-dasharray="none" stroke-linecap="butt" stroke-linejoin="miter" stroke-miterlimit="4" stroke-opacity="1" stroke-width=".254" d="m 13.229167,111.79167 15.875001,-3e-5 v 26.45815 l -15.875001,3e-5 z m 5.291629,0 v 26.45815 m 5.291627,-26.45815 v 26.45815 m -10.583256,-5.29163 15.875001,-3e-5 m 0,-5.29164 -15.875001,3e-5 m 0,-5.29162 15.875001,-3e-5 m 0,-5.29163 -15.875001,3e-5"/><path id="path1299-6-4" fill="red" fill-opacity="1" stroke="#000" stroke-dasharray="none" stroke-linecap="butt" stroke-linejoin="miter" stroke-miterlimit="4" stroke-opacity="1" stroke-width=".254" d="m 71.437501,111.79167 15.875001,-3e-5 v 26.45815 l -15.875001,3e-5 z m 5.291628,0 v 26.45815 m 5.291628,-26.45815 v 26.45815 m -10.583256,-5.29163 15.875001,-3e-5 m 0,-5.29164 -15.875001,3e-5 m 0,-5.29162 15.875001,-3e-5 m 0,-5.29163 -15.875001,3e-5"/><path id="path1299-6-8" fill="red" fill-opacity="1" stroke="#000" stroke-dasharray="none" stroke-linecap="butt" stroke-linejoin="miter" stroke-miterlimit="4" stroke-opacity="1" stroke-width=".254" d="m 129.64583,111.79167 15.875,-3e-5 v 26.45815 l -15.875,3e-5 z m 5.29163,0 v 26.45815 m 5.29162,-26.45815 v 26.45815 m -10.58325,-5.29163 15.875,-3e-5 m 0,-5.29164 -15.875,3e-5 m 0,-5.29162 15.875,-3e-5 m 0,-5.29163 -15.875,3e-5"/></g></svg>